<svg xmlns="http://www.w3.org/2000/svg" viewBox="0 0 900 1080" role="img" aria-labelledby="title desc">
  <title id="title">Diseño en tendencia Animal Neon</title>
  <desc id="desc">Camiseta negra con felino estilizado en colores neón y detalles urbanos.</desc>
  <defs>
    <linearGradient id="bg" x1="0" y1="0" x2="1" y2="1">
      <stop offset="0%" stop-color="#050507"/>
      <stop offset="100%" stop-color="#14141c"/>
    </linearGradient>
    <linearGradient id="neon" x1="0" y1="0" x2="1" y2="1">
      <stop offset="0%" stop-color="#ff2a89"/>
      <stop offset="50%" stop-color="#ffe600"/>
      <stop offset="100%" stop-color="#16dcff"/>
    </linearGradient>
    <filter id="shadow" x="-20%" y="-20%" width="140%" height="140%">
      <feDropShadow dx="0" dy="28" stdDeviation="28" flood-color="#000000" flood-opacity="0.35"/>
    </filter>
  </defs>
  <rect width="900" height="1080" fill="url(#bg)"/>
  <circle cx="670" cy="220" r="120" fill="#16dcff" opacity="0.14"/>
  <circle cx="230" cy="760" r="150" fill="#ff2a89" opacity="0.14"/>
  <g filter="url(#shadow)">
    <path d="M302 138c40-26 255-26 295 0l111 89c35 28 68 38 105 47l-50 150c-39-7-67-18-95-37v467c0 33-27 60-60 60H292c-33 0-60-27-60-60V387c-28 19-56 30-95 37l-50-150c37-9 70-19 105-47z" fill="#0c0c10"/>
    <path d="M350 149c24 43 61 68 100 68s76-25 100-68" fill="none" stroke="#272732" stroke-width="18" stroke-linecap="round"/>
    <rect x="232" y="252" width="436" height="438" rx="34" fill="#13131a"/>
    <text x="450" y="334" text-anchor="middle" font-family="Arial, sans-serif" font-size="32" font-weight="700" fill="#ffffff" letter-spacing="8">WILD SIGNAL</text>
    <path d="M380 407l-44 70 32 133 82 50 82-50 32-133-44-70-70 52z" fill="none" stroke="url(#neon)" stroke-width="16" stroke-linejoin="round"/>
    <path d="M402 470l48 35 48-35" fill="none" stroke="#ffffff" stroke-width="8" stroke-linecap="round"/>
    <path d="M390 544l60 38 60-38" fill="none" stroke="#ffffff" stroke-opacity="0.75" stroke-width="7" stroke-linecap="round"/>
    <path d="M356 438l40-87 54 74M544 438l-40-87-54 74" fill="none" stroke="#16dcff" stroke-width="12" stroke-linecap="round"/>
    <circle cx="408" cy="520" r="12" fill="#ffe600"/>
    <circle cx="492" cy="520" r="12" fill="#ffe600"/>
    <path d="M412 625c24 18 52 27 80 27s56-9 80-27" fill="none" stroke="#ff2a89" stroke-width="10" stroke-linecap="round"/>
  </g>
</svg>
