<svg xmlns="http://www.w3.org/2000/svg" viewBox="0 0 900 1080" role="img" aria-labelledby="title desc">
  <title id="title">Diseño en tendencia Backprint Type</title>
  <desc id="desc">Camiseta gris con enfoque en tipografía bold y composición de back print.</desc>
  <defs>
    <linearGradient id="bg" x1="0" y1="0" x2="1" y2="1">
      <stop offset="0%" stop-color="#ececec"/>
      <stop offset="100%" stop-color="#cfcfd2"/>
    </linearGradient>
    <filter id="shadow" x="-20%" y="-20%" width="140%" height="140%">
      <feDropShadow dx="0" dy="24" stdDeviation="26" flood-color="#000000" flood-opacity="0.18"/>
    </filter>
  </defs>
  <rect width="900" height="1080" fill="url(#bg)"/>
  <g filter="url(#shadow)">
    <path d="M302 138c40-26 255-26 295 0l111 89c35 28 68 38 105 47l-50 150c-39-7-67-18-95-37v467c0 33-27 60-60 60H292c-33 0-60-27-60-60V387c-28 19-56 30-95 37l-50-150c37-9 70-19 105-47z" fill="#666870"/>
    <path d="M350 149c24 43 61 68 100 68s76-25 100-68" fill="none" stroke="#858893" stroke-width="18" stroke-linecap="round"/>
    <rect x="226" y="240" width="448" height="466" rx="34" fill="#5a5d67"/>
    <text x="450" y="328" text-anchor="middle" font-family="Arial, sans-serif" font-size="28" font-weight="700" fill="#ffffff" letter-spacing="8">BACK PRINT</text>
    <text x="450" y="430" text-anchor="middle" font-family="Arial, sans-serif" font-size="106" font-weight="700" fill="#ffffff">MOVE</text>
    <text x="450" y="516" text-anchor="middle" font-family="Arial, sans-serif" font-size="106" font-weight="700" fill="#111111">LOUD</text>
    <path d="M302 570h296" stroke="#ff3b30" stroke-width="10" stroke-linecap="round"/>
    <text x="450" y="626" text-anchor="middle" font-family="Arial, sans-serif" font-size="24" font-weight="700" fill="#ffffff" letter-spacing="5">TYPOGRAPHY / MESSAGE / STREET</text>
    <rect x="344" y="272" width="212" height="44" rx="22" fill="#111111"/>
    <text x="450" y="302" text-anchor="middle" font-family="Arial, sans-serif" font-size="18" font-weight="700" fill="#ffffff" letter-spacing="4">2026 TREND</text>
  </g>
</svg>
