<svg xmlns="http://www.w3.org/2000/svg" viewBox="0 0 900 1080" role="img" aria-labelledby="title desc">
  <title id="title">Diseño en tendencia Minimal Mono</title>
  <desc id="desc">Camiseta color hueso con tipografía pequeña, lineas limpias y composición monocromática.</desc>
  <defs>
    <linearGradient id="bg" x1="0" y1="0" x2="1" y2="1">
      <stop offset="0%" stop-color="#faf8f2"/>
      <stop offset="100%" stop-color="#dfd8cb"/>
    </linearGradient>
    <filter id="shadow" x="-20%" y="-20%" width="140%" height="140%">
      <feDropShadow dx="0" dy="24" stdDeviation="26" flood-color="#000000" flood-opacity="0.18"/>
    </filter>
  </defs>
  <rect width="900" height="1080" fill="url(#bg)"/>
  <rect x="90" y="90" width="720" height="900" rx="44" fill="#ffffff" opacity="0.26"/>
  <g filter="url(#shadow)">
    <path d="M302 138c40-26 255-26 295 0l111 89c35 28 68 38 105 47l-50 150c-39-7-67-18-95-37v467c0 33-27 60-60 60H292c-33 0-60-27-60-60V387c-28 19-56 30-95 37l-50-150c37-9 70-19 105-47z" fill="#f4f1ea"/>
    <path d="M350 149c24 43 61 68 100 68s76-25 100-68" fill="none" stroke="#d4cabc" stroke-width="18" stroke-linecap="round"/>
    <rect x="258" y="252" width="384" height="420" rx="28" fill="#ece7de"/>
    <text x="450" y="330" text-anchor="middle" font-family="Arial, sans-serif" font-size="28" font-weight="700" fill="#2f2f2f" letter-spacing="11">PRIN EPIC</text>
    <path d="M346 375h208" stroke="#212121" stroke-width="6" stroke-linecap="round"/>
    <text x="450" y="438" text-anchor="middle" font-family="Arial, sans-serif" font-size="82" font-weight="700" fill="#111111">01</text>
    <text x="450" y="494" text-anchor="middle" font-family="Arial, sans-serif" font-size="20" fill="#666666" letter-spacing="7">ESSENTIAL DROP</text>
    <rect x="332" y="552" width="236" height="46" rx="23" fill="#111111"/>
    <text x="450" y="583" text-anchor="middle" font-family="Arial, sans-serif" font-size="20" font-weight="700" fill="#ffffff" letter-spacing="4">MONOCHROME</text>
  </g>
</svg>
